<svg width="48" height="15" viewBox="0 0 48 15" fill="none" xmlns="http://www.w3.org/2000/svg">
<path d="M2.286 14.478C2.022 14.478 1.764 14.454 1.512 14.406C1.26 14.37 1.032 14.304 0.828 14.208V12.228C0.984 12.264 1.17 12.3 1.386 12.336C1.614 12.372 1.824 12.39 2.016 12.39C2.556 12.39 2.946 12.264 3.186 12.012C3.438 11.76 3.66 11.43 3.852 11.022L4.5 9.51L4.464 11.49L0.198 0.707999H2.736L5.724 8.664H4.824L7.794 0.707999H10.35L6.084 11.49C5.832 12.126 5.526 12.666 5.166 13.11C4.806 13.554 4.386 13.89 3.906 14.118C3.438 14.358 2.898 14.478 2.286 14.478ZM16.1131 10.716C15.1051 10.716 14.2231 10.488 13.4671 10.032C12.7111 9.576 12.1231 8.958 11.7031 8.178C11.2831 7.398 11.0731 6.534 11.0731 5.586C11.0731 4.602 11.2831 3.732 11.7031 2.976C12.1351 2.208 12.7171 1.602 13.4491 1.158C14.1931 0.713999 15.0211 0.491999 15.9331 0.491999C16.7011 0.491999 17.3731 0.617999 17.9491 0.87C18.5371 1.122 19.0351 1.47 19.4431 1.914C19.8511 2.358 20.1631 2.868 20.3791 3.444C20.5951 4.008 20.7031 4.62 20.7031 5.28C20.7031 5.448 20.6911 5.622 20.6671 5.802C20.6551 5.982 20.6251 6.138 20.5771 6.27H13.0171V4.47H19.2451L18.1291 5.316C18.2371 4.764 18.2071 4.272 18.0391 3.84C17.8831 3.408 17.6191 3.066 17.2471 2.814C16.8871 2.562 16.4491 2.436 15.9331 2.436C15.4411 2.436 15.0031 2.562 14.6191 2.814C14.2351 3.054 13.9411 3.414 13.7371 3.894C13.5451 4.362 13.4731 4.932 13.5211 5.604C13.4731 6.204 13.5511 6.738 13.7551 7.206C13.9711 7.662 14.2831 8.016 14.6911 8.268C15.1111 8.52 15.5911 8.646 16.1311 8.646C16.6711 8.646 17.1271 8.532 17.4991 8.304C17.8831 8.076 18.1831 7.77 18.3991 7.386L20.3071 8.322C20.1151 8.79 19.8151 9.204 19.4071 9.564C18.9991 9.924 18.5131 10.206 17.9491 10.41C17.3971 10.614 16.7851 10.716 16.1131 10.716ZM25.4254 10.716C24.7414 10.716 24.1474 10.602 23.6434 10.374C23.1394 10.146 22.7494 9.822 22.4734 9.402C22.1974 8.97 22.0594 8.472 22.0594 7.908C22.0594 7.368 22.1794 6.888 22.4194 6.468C22.6594 6.036 23.0314 5.676 23.5354 5.388C24.0394 5.1 24.6754 4.896 25.4434 4.776L28.6474 4.254V6.054L25.8934 6.522C25.4254 6.606 25.0774 6.756 24.8494 6.972C24.6214 7.188 24.5074 7.47 24.5074 7.818C24.5074 8.154 24.6334 8.424 24.8854 8.628C25.1494 8.82 25.4734 8.916 25.8574 8.916C26.3494 8.916 26.7814 8.814 27.1534 8.61C27.5374 8.394 27.8314 8.1 28.0354 7.728C28.2514 7.356 28.3594 6.948 28.3594 6.504V3.984C28.3594 3.564 28.1914 3.216 27.8554 2.94C27.5314 2.652 27.0994 2.508 26.5594 2.508C26.0554 2.508 25.6054 2.646 25.2094 2.922C24.8254 3.186 24.5434 3.54 24.3634 3.984L22.4374 3.048C22.6294 2.532 22.9294 2.088 23.3374 1.716C23.7574 1.332 24.2494 1.032 24.8134 0.815999C25.3774 0.599999 25.9894 0.491999 26.6494 0.491999C27.4534 0.491999 28.1614 0.641999 28.7734 0.942C29.3854 1.23 29.8594 1.638 30.1954 2.166C30.5434 2.682 30.7174 3.288 30.7174 3.984V10.5H28.4854V8.826L28.9894 8.79C28.7374 9.21 28.4374 9.564 28.0894 9.852C27.7414 10.128 27.3454 10.344 26.9014 10.5C26.4574 10.644 25.9654 10.716 25.4254 10.716ZM32.8968 10.5V0.707999H35.1108V2.886L34.9308 2.562C35.1588 1.83 35.5128 1.32 35.9928 1.032C36.4848 0.744 37.0728 0.6 37.7568 0.6H38.3328V2.688H37.4868C36.8148 2.688 36.2748 2.898 35.8668 3.318C35.4588 3.726 35.2548 4.302 35.2548 5.046V10.5H32.8968ZM43.3553 10.716C42.3113 10.716 41.3993 10.47 40.6193 9.978C39.8513 9.474 39.3233 8.796 39.0353 7.944L40.7993 7.098C41.0513 7.65 41.3993 8.082 41.8433 8.394C42.2993 8.706 42.8033 8.862 43.3553 8.862C43.7873 8.862 44.1293 8.766 44.3813 8.574C44.6333 8.382 44.7593 8.13 44.7593 7.818C44.7593 7.626 44.7053 7.47 44.5973 7.35C44.5013 7.218 44.3633 7.11 44.1833 7.026C44.0153 6.93 43.8293 6.852 43.6253 6.792L42.0233 6.342C41.1953 6.102 40.5653 5.736 40.1333 5.244C39.7133 4.752 39.5033 4.17 39.5033 3.498C39.5033 2.898 39.6533 2.376 39.9533 1.932C40.2653 1.476 40.6913 1.122 41.2313 0.87C41.7833 0.617999 42.4133 0.491999 43.1213 0.491999C44.0453 0.491999 44.8613 0.713999 45.5693 1.158C46.2773 1.602 46.7813 2.226 47.0813 3.03L45.2813 3.876C45.1133 3.432 44.8313 3.078 44.4353 2.814C44.0393 2.55 43.5953 2.418 43.1033 2.418C42.7073 2.418 42.3953 2.508 42.1673 2.688C41.9393 2.868 41.8253 3.102 41.8253 3.39C41.8253 3.57 41.8733 3.726 41.9693 3.858C42.0653 3.99 42.1973 4.098 42.3653 4.182C42.5453 4.266 42.7493 4.344 42.9773 4.416L44.5433 4.884C45.3473 5.124 45.9653 5.484 46.3973 5.964C46.8413 6.444 47.0633 7.032 47.0633 7.728C47.0633 8.316 46.9073 8.838 46.5953 9.294C46.2833 9.738 45.8513 10.086 45.2993 10.338C44.7473 10.59 44.0993 10.716 43.3553 10.716Z" fill="#4E6E7E"/>
</svg>
